<?xml version="1.0" encoding="UTF-8" standalone="no"?>
<!-- Created with Inkscape (http://www.inkscape.org/) -->

<svg
   width="92.796989mm"
   height="48.774132mm"
   viewBox="0 0 92.796989 48.774132"
   version="1.1"
   id="svg5"
   xmlns="http://www.w3.org/2000/svg"
   xmlns:svg="http://www.w3.org/2000/svg">
  <defs
     id="defs2" />
  <g
     id="layer1"
     transform="translate(-94.359736,-57.106863)">
    <path
       id="path3339"
       style="font-size:0.304239px;line-height:0.8;font-family:Quicksand;-inkscape-font-specification:Quicksand;fill:#002255;fill-opacity:1;stroke-width:0.994114;stroke-linecap:square;stroke-linejoin:round;paint-order:stroke markers fill"
       d="m 129.89492,57.106861 c -0.20056,0.0381 -0.40112,0.20055 -0.53483,0.33426 -0.1337,0.13371 -0.20056,0.33427 -0.20056,0.60168 v 21.28541 c 0,0.33426 0.0669,0.53482 0.20056,0.72201 0.20056,0.13371 0.40112,0.20056 0.72202,0.20056 0.33426,0 0.53482,-0.0669 0.60168,-0.20056 0.20056,-0.20056 0.33426,-0.40112 0.33426,-0.72201 v -8.86474 c 0,-0.8223 0.20056,-1.54431 0.72202,-2.22622 0.53482,-0.72201 1.14319,-1.28358 1.912,-1.69807 0.8223,-0.40112 1.62454,-0.60168 2.49363,-0.60168 1.4106,0 2.4134,0.40112 3.02845,1.2769 0.60168,0.82229 0.92257,1.93206 0.92257,3.28918 v 8.86474 c 0,0.33426 0.0669,0.53482 0.20056,0.72201 0.20056,0.13371 0.53483,0.20056 0.72202,0.20056 0.33427,0 0.40112,-0.0669 0.60168,-0.20056 0.20056,-0.20056 0.33426,-0.40112 0.33426,-0.72201 v -8.86474 c 0,-1.85852 -0.53482,-3.34935 -1.37717,-4.50591 -0.92258,-1.18999 -2.31981,-1.80504 -4.1917,-1.80504 l 0.13371,-0.0535 c -1.03623,0 -2.07245,0.33426 -3.08194,0.92257 -1.02954,0.53483 -1.78498,1.28359 -2.33318,2.17942 v -9.18296 c 0,-0.33427 -0.1337,-0.40112 -0.33426,-0.60168 -0.13371,-0.20056 -0.40112,-0.33427 -0.60168,-0.33427 -0.0669,0 -0.0669,-0.0134 -0.20056,0 z m 22.39985,6.58504 c -1.02954,0.13371 -1.95212,0.40112 -2.86801,1.02954 -1.12982,0.60168 -2.02565,1.62453 -2.71424,2.9148 -0.72201,1.2769 -1.05628,2.80784 -1.05628,4.5126 0,1.62453 0.40112,3.0485 1.05628,4.30534 0.72202,1.2301 1.64459,2.17942 2.86801,2.86801 1.2301,0.72201 2.6407,1.02954 4.24518,1.02954 1.11645,0 2.1861,-0.20056 3.18221,-0.8223 1.02954,-0.53482 1.85852,-1.20335 2.54711,-2.01228 0.20056,-0.20056 0.33427,-0.40112 0.33427,-0.60168 0,-0.20056 -0.0669,-0.40112 -0.20056,-0.53482 -0.13371,-0.13371 -0.33427,-0.20056 -0.53483,-0.20056 -0.20056,0 -0.40112,0.1337 -0.60168,0.33426 -0.53482,0.60168 -1.11645,1.18331 -1.912,1.59111 -0.8223,0.40112 -1.65128,0.60168 -2.64739,0.60168 -1.29695,0 -2.43346,-0.20056 -3.40283,-0.8223 -0.92257,-0.60167 -1.63122,-1.35712 -2.17942,-2.33317 -0.53482,-1.02954 -0.72201,-2.14599 -0.72201,-3.40283 h 11.83704 c 0.20056,0 0.40111,-0.0669 0.60167,-0.20056 0.20056,-0.13371 0.33427,-0.33427 0.33427,-0.60168 l -0.13371,-0.20056 c -0.0201,-1.53763 -0.40112,-2.90812 -1.05628,-4.03794 -0.72201,-1.09639 -1.55099,-1.93206 -2.64739,-2.54711 -1.0897,-0.60168 -2.25964,-0.92257 -3.50311,-0.92257 -0.20056,0 -0.53482,-0.0234 -0.72201,0 z m 18.31378,0 c -1.10977,0.13371 -2.11925,0.53483 -2.96829,1.22341 -0.92257,0.8223 -1.69807,1.73819 -2.17941,2.91481 v -2.76104 c 0,-0.33427 -0.0595,-0.40112 -0.33427,-0.60168 -0.13371,-0.20056 -0.40112,-0.33427 -0.60168,-0.33427 -0.33426,0 -0.53482,0.13371 -0.71533,0.33427 -0.1337,0.1337 -0.20056,0.33426 -0.20056,0.60168 v 14.01377 c 0,0.33427 0.0669,0.53483 0.20056,0.72202 0.20056,0.13371 0.40112,0.20056 0.71533,0.20056 0.33427,0 0.53483,-0.0669 0.60168,-0.20056 0.20056,-0.20056 0.33427,-0.40112 0.33427,-0.72202 v -7.69347 c 0,-0.92257 0.33426,-1.93206 0.72201,-2.868 0.53483,-0.92258 1.10977,-1.66465 1.85852,-2.2797 0.72202,-0.60168 1.56437,-0.92257 2.33318,-0.92257 0.33427,0 0.53483,0.0227 0.8223,0.20056 0.33426,0.1337 0.53482,0.20056 0.60167,0.20056 0.33427,0 0.53483,-0.0669 0.60168,-0.20056 0.13371,-0.20056 0.20056,-0.40112 0.20056,-0.72202 0,-0.33426 -0.1337,-0.60168 -0.53482,-0.71533 -0.33427,-0.1337 -0.72202,-0.20056 -1.10977,-0.20056 l 0.0535,-0.20056 c -0.20056,0.003 -0.33427,-0.014 -0.53483,0 z m 8.38139,0 c -1.02954,0.13371 -1.95212,0.40112 -2.86801,1.02954 -1.12982,0.60168 -2.02565,1.62453 -2.71424,2.9148 -0.72201,1.2769 -1.05628,2.80784 -1.05628,4.5126 0,1.62453 0.40112,3.0485 1.05628,4.30534 0.72202,1.2301 1.64459,2.17942 2.86801,2.86801 1.2301,0.72201 2.6407,1.02954 4.24518,1.02954 1.11645,0 2.1861,-0.20056 3.18221,-0.8223 1.02954,-0.53482 1.85852,-1.20335 2.54711,-2.01228 0.20056,-0.20056 0.33427,-0.40112 0.33427,-0.60168 0,-0.20056 -0.0227,-0.40112 -0.20056,-0.53482 -0.13371,-0.13371 -0.33427,-0.20056 -0.53483,-0.20056 -0.20056,0 -0.40112,0.1337 -0.60168,0.33426 -0.53482,0.60168 -1.11645,1.18331 -1.912,1.59111 -0.8223,0.40112 -1.65128,0.60168 -2.64739,0.60168 -1.29695,0 -2.43346,-0.20056 -3.40283,-0.8223 -0.92257,-0.60167 -1.63122,-1.35712 -2.17942,-2.33317 -0.53482,-1.02954 -0.72201,-2.14599 -0.72201,-3.40283 h 11.83704 c 0.20056,0 0.40112,-0.0669 0.60167,-0.20056 0.20056,-0.13371 0.33427,-0.33427 0.33427,-0.60168 l -0.13371,-0.20056 c -0.02,-1.53763 -0.40111,-2.90812 -1.05628,-4.03794 -0.72201,-1.09639 -1.55099,-1.93206 -2.64739,-2.54711 -1.07633,-0.60168 -2.25295,-0.92257 -3.50311,-0.92257 -0.20056,0 -0.53482,-0.0234 -0.72201,0 z m -77.81652,0.20056 c -0.72202,0.0642 -1.450717,0.33427 -2.072447,0.53483 -0.8223,0.40112 -1.42398,0.92257 -1.91201,1.5911 -0.53482,0.60168 -0.72201,1.43066 -0.72201,2.2797 0,1.35712 0.53482,2.37329 1.49083,3.08193 1.02954,0.72202 2.359917,1.2301 4.084727,1.64459 1.2301,0.33427 2.17942,0.72202 2.868,1.16994 0.72202,0.40111 1.02954,1.0897 1.02954,1.96548 0,0.92258 -0.40112,1.59111 -1.10976,2.07245 -0.72202,0.53483 -1.60448,0.72202 -2.60059,0.72202 -2.04571,0 -3.656867,-0.72202 -4.880287,-2.39335 -0.20056,-0.20056 -0.53482,-0.33427 -0.71533,-0.33427 -0.20056,0 -0.33426,0.0669 -0.53482,0.20056 -0.33427,0.13371 -0.40112,0.33427 -0.40112,0.60168 0,0.20056 0.0668,0.53483 0.20056,0.72202 l 0.33426,0.0535 c 1.49751,1.89863 3.5098,2.81452 6.050217,2.81452 1.60448,0 2.94823,-0.40112 4.03794,-1.16993 1.07633,-0.82229 1.59111,-1.87858 1.59111,-3.2357 0,-1.02954 -0.20057,-1.82509 -0.72202,-2.44683 -0.40112,-0.60167 -1.02954,-1.03622 -1.69807,-1.37717 -0.72202,-0.33427 -1.62454,-0.72202 -2.70087,-0.92258 -1.38387,-0.40112 -2.45352,-0.72201 -3.182217,-1.16993 -0.72201,-0.40112 -1.06965,-1.07634 -1.10976,-1.912 0,-0.92258 0.33426,-1.59111 1.02954,-2.07245 0.722007,-0.53483 1.571047,-0.72202 2.547107,-0.72202 0.82229,0 1.49082,0.13371 2.17941,0.40112 0.71533,0.33427 1.3237,0.72202 1.80504,1.2769 0.13371,0.13371 0.33427,0.20056 0.53483,0.20056 0.20056,0 0.33426,-0.0668 0.53482,-0.20056 0.20056,-0.13371 0.33427,-0.33427 0.33427,-0.60168 0,-0.33427 -0.13371,-0.53483 -0.33427,-0.60168 -0.60168,-0.72201 -1.41729,-1.25016 -2.33318,-1.59111 -0.92257,-0.33426 -1.80503,-0.53482 -2.70087,-0.53482 -0.33426,0 -0.53482,-0.0221 -0.72201,0 z m 16.98608,0.33427 v 0.0535 c -1.2301,0 -2.37329,0.33426 -3.40283,0.82229 -1.02954,0.60168 -1.81841,1.25684 -2.33318,2.2797 v -2.12593 c 0,-0.33427 -0.13371,-0.53483 -0.33426,-0.72202 -0.13371,-0.20056 -0.33427,-0.33427 -0.60168,-0.33427 -0.33427,0 -0.53483,0.13371 -0.72202,0.33427 -0.13371,0.20056 -0.20056,0.40112 -0.20056,0.72202 v 19.74644 c -0.0668,-0.0548 -0.20056,-0.13371 -0.33427,-0.20056 -1.58442,-0.92257 -3.33598,-1.43066 -5.36164,-1.43066 -2.02565,0 -3.83069,0.53483 -5.415107,1.43066 -1.58442,0.92257 -2.81452,2.2797 -3.71704,3.98445 -0.92257,1.71813 -1.37718,3.67693 -1.37718,5.83629 0,2.14599 0.53483,4.07805 1.37718,5.782809 0.92258,1.71813 2.1393,3.04851 3.71704,4.03793 1.584417,0.92258 3.389457,1.43735 5.415107,1.43735 2.02566,0 3.77722,-0.53483 5.36164,-1.43735 1.58443,-1.02954 2.81453,-2.33317 3.71705,-4.03793 0.92257,-1.718129 1.37717,-3.643499 1.37717,-5.782809 0,-2.16604 -0.53482,-4.13153 -1.37717,-5.83629 -0.40112,-0.82229 -1.02954,-1.61116 -1.64459,-2.27969 v -0.0535 c 0.007,-0.0515 0.0521,-0.0669 0.0521,-0.20056 v -8.91622 c 0.60168,0.92257 1.36381,1.66464 2.39335,2.27969 1.02954,0.53483 2.1393,0.8223 3.34935,0.8223 1.37717,0 2.62064,-0.33427 3.71704,-1.05628 1.14319,-0.72202 2.03233,-1.6847 2.64738,-2.9148 0.60168,-1.25016 0.92258,-2.68082 0.92258,-4.2385 0,-1.551 -0.33427,-2.9148 -0.92258,-4.13822 -0.60167,-1.25684 -1.53094,-2.19947 -2.64738,-2.9148 -1.12314,-0.72201 -2.33987,-1.05628 -3.71704,-1.05628 z m 34.29037,1.5911 c 0.20056,-0.0287 0.40112,0 0.60168,0 l 0.0521,0.13371 c 0.8223,0 1.61117,0.13371 2.39335,0.53483 0.72201,0.33426 1.41729,0.92257 1.9588,1.5911 0.53482,0.72202 0.72201,1.49752 0.92257,2.44683 v 0.20056 h -10.61629 c 0.33426,-1.55768 0.92257,-2.77441 1.96548,-3.60339 0.8223,-0.72201 1.74487,-1.08971 2.71425,-1.22341 z m 26.69918,0 c 0.20056,-0.0287 0.53483,0 0.72201,0 v 0.13371 c 0.8223,0 1.61117,0.13371 2.37998,0.53483 0.72201,0.33426 1.41729,0.92257 1.96549,1.5911 0.53482,0.72202 0.82229,1.49752 0.92257,2.44683 v 0.20056 h -10.66911 c 0.33427,-1.55768 0.92258,-2.77441 1.9588,-3.60339 0.8223,-0.72201 1.75824,-1.08971 2.71424,-1.22341 z m -61.41474,0.20056 c 0.0669,-0.002 0.13371,0 0.20056,0 1.07634,0 2.04571,0.33427 2.86801,0.8223 0.82229,0.53482 1.56436,1.25684 2.07245,2.27969 0.53482,0.92258 0.72201,2.02566 0.72201,3.2357 0,1.2301 -0.20056,2.31981 -0.72201,3.34935 -0.53483,1.02954 -1.14988,1.76492 -2.07245,2.27969 -0.8223,0.53483 -1.78498,0.8223 -2.86801,0.8223 -1.09639,0 -2.04571,-0.33427 -2.96828,-0.8223 -0.92258,-0.60167 -1.56437,-1.25015 -2.07245,-2.27969 -0.53483,-1.02954 -0.72202,-2.12593 -0.72202,-3.34935 0,-1.22341 0.20056,-2.31312 0.72202,-3.2357 0.53482,-0.92257 1.14987,-1.76492 2.07245,-2.27969 0.82229,-0.53483 1.74487,-0.8223 2.76104,-0.8223 z m -13.42882,19.32126 c 0.20056,-0.012 0.40112,0 0.60168,0 1.64459,0 3.13543,0.40112 4.40564,1.16993 1.29695,0.8223 2.27301,1.912 2.96828,3.34935 0.72202,1.41729 1.12314,3.06856 1.12314,4.88029 0,1.8184 -0.40112,3.44294 -1.12314,4.88028 -0.71533,1.410609 -1.67133,2.493629 -2.96828,3.289179 -1.27021,0.8223 -2.76105,1.16994 -4.40564,1.16994 -1.64459,0 -3.11536,-0.40112 -4.40563,-1.16994 -1.276897,-0.82229 -2.252947,-1.87189 -2.968277,-3.289179 -0.72202,-1.43734 -1.05628,-3.06856 -1.05628,-4.88028 0,-1.81841 0.33426,-3.463 1.05628,-4.88029 0.72201,-1.43735 1.70476,-2.54711 2.968277,-3.34935 1.12982,-0.72201 2.42677,-1.07634 3.82401,-1.16993 z m 37.26267,3.77052 c -1.09639,0.0669 -2.09919,0.40112 -3.08193,1.02954 -1.12982,0.60168 -2.07245,1.67802 -2.76104,2.96829 -0.71533,1.27689 -1.02954,2.75435 -1.02954,4.45911 0,1.63122 0.33427,3.048509 1.02954,4.305349 0.72202,1.2301 1.69807,2.17941 2.9148,2.868 1.2301,0.72202 2.64071,1.05628 4.2385,1.05628 1.12313,0 2.1861,-0.33426 3.18221,-0.82229 1.02954,-0.53483 1.80504,-1.14988 2.49363,-1.9588 0.20056,-0.20056 0.33427,-0.40112 0.33427,-0.60168 0,-0.20056 -0.0669,-0.40112 -0.20056,-0.53483 -0.13371,-0.1337 -0.33427,-0.20056 -0.53483,-0.20056 -0.20056,0 -0.40112,0.13371 -0.60168,0.33427 -0.53483,0.60168 -1.12313,1.1833 -1.912,1.59111 -0.8223,0.40112 -1.70476,0.60168 -2.71424,0.60168 -1.29696,0 -2.38667,-0.33427 -3.34935,-0.8223 -0.92258,-0.60168 -1.6847,-1.35712 -2.22622,-2.33318 -0.53482,-1.02954 -0.72201,-2.092499 -0.72201,-3.349339 h 11.78355 c 0.20056,0 0.40112,-0.0669 0.60168,-0.20056 0.20056,-0.13371 0.33427,-0.40112 0.33427,-0.60168 l -0.13371,-0.20056 c -0.02,-1.54431 -0.40112,-2.85464 -1.05628,-3.98446 -0.72201,-1.09639 -1.60448,-1.93206 -2.70087,-2.54711 -1.08971,-0.60167 -2.25964,-0.92257 -3.50311,-0.92257 -0.20056,0 -0.33427,-0.01 -0.53483,0 z m -16.61436,0.20056 c -0.92258,0.0669 -1.89195,0.40112 -2.81453,0.92258 -1.05628,0.60168 -1.83846,1.28358 -2.38666,2.17941 v -1.69807 c 0,-0.33427 -0.1337,-0.53482 -0.33426,-0.60168 -0.13371,-0.20056 -0.40112,-0.33426 -0.60168,-0.33426 -0.33427,0 -0.53483,0.0608 -0.72202,0.33426 -0.1337,0.13371 -0.20056,0.40112 -0.20056,0.60168 v 14.013109 c 0,0.33427 0.0669,0.53483 0.20056,0.71533 0.20056,0.13371 0.40112,0.20056 0.72202,0.20056 0.33426,0 0.53482,-0.0668 0.60168,-0.20056 0.20056,-0.20056 0.33426,-0.40112 0.33426,-0.71533 v -9.080679 c 0,-0.82229 0.20056,-1.60447 0.72202,-2.27969 0.53482,-0.72202 1.16993,-1.28358 1.9588,-1.69139 0.82229,-0.40112 1.65127,-0.60168 2.54711,-0.60168 1.39723,0 2.44683,0.40112 3.13541,1.2769 0.71533,0.82229 1.02954,1.93206 1.02954,3.28918 v 9.080009 c 0,0.33426 0.0669,0.53482 0.20056,0.72201 0.20056,0.13371 0.53483,0.20056 0.72202,0.20056 0.20056,0 0.40112,-0.0227 0.60168,-0.20056 0.20056,-0.20056 0.33426,-0.53482 0.33426,-0.72201 v -9.182969 c 0,-1.87857 -0.53482,-3.38946 -1.37717,-4.51259 -0.92258,-1.13651 -2.31312,-1.69807 -4.24518,-1.69807 l 0.0535,-0.0535 c -0.13371,0 -0.33427,-0.009 -0.40112,0 z m 16.77348,1.85852 c 0.1337,-0.0134 0.33426,0 0.40111,0 v 0.13371 c 0.8223,0 1.66465,0.20056 2.44683,0.53483 0.72202,0.33426 1.41729,0.92257 1.96549,1.5911 0.53483,0.72202 0.72201,1.45072 0.92257,2.37998 v 0.20056 h -10.66911 c 0.33427,-1.56437 0.92258,-2.72093 1.9588,-3.55659 0.92258,-0.72202 1.93206,-1.18331 2.96829,-1.27022 z" />
    <ellipse
       style="fill:#ff7f2a;fill-opacity:1;stroke:none;stroke-width:2.61948;stroke-linecap:square;stroke-linejoin:round;stroke-dasharray:none;paint-order:markers fill stroke"
       id="ellipse3341"
       cx="-125.71248"
       cy="-96.905518"
       rx="5.214057"
       ry="5.3395934"
       transform="matrix(-1,0,0.2155647,-0.97648956,0,0)" />
  </g>
</svg>
