<?xml version="1.0" encoding="UTF-8" standalone="no"?>
<!-- Created with Inkscape (http://www.inkscape.org/) -->

<svg
   width="56.640804mm"
   height="88.407341mm"
   viewBox="0 0 56.640804 88.407341"
   version="1.1"
   id="svg5"
   xmlns="http://www.w3.org/2000/svg"
   xmlns:svg="http://www.w3.org/2000/svg">
  <defs
     id="defs2" />
  <g
     id="layer1"
     transform="translate(-28.772361,-41.026385)">
    <g
       id="g3337"
       transform="matrix(66.853247,0,0,66.853247,-7591.0484,-9952.8673)">
      <path
         id="path3329"
         style="color:#000000;fill:#2a7fff;fill-opacity:1;stroke-linecap:round;stroke-linejoin:round;-inkscape-stroke:none;paint-order:stroke markers fill"
         d="m 114.16978,149.4901 c -0.10189,-1.9e-4 -0.18485,0.0842 -0.18346,0.18552 l -0.008,0.31471 c -1.2e-4,0.0596 0.0342,0.10063 0.062,0.12661 0.0158,0.0147 0.0319,0.0261 0.0429,0.0331 0,0 0.0194,0.0241 0.0217,0.0336 0.008,0.0322 0.0138,0.11378 0.0155,0.20102 0.002,0.0872 0.001,0.18149 0.004,0.25373 0,5.8e-4 -1e-5,0.002 0,0.002 a 0.06033853,0.06033853 0 0 0 0,0.002 c 0.006,0.0961 0.0873,0.17165 0.18345,0.17002 h 0.32039 c 5.8e-4,0 0.001,1e-5 0.002,0 a 0.06033853,0.06033853 0 0 0 0.002,0 c 0.0955,-0.003 0.17223,-0.0804 0.1757,-0.1757 0.0101,-0.25824 0.0153,-0.76737 0.0176,-0.98444 a 0.06033853,0.06033853 0 0 0 0,-5.1e-4 0.06033853,0.06033853 0 0 0 0,-5.2e-4 0.06033853,0.06033853 0 0 0 0,-5.2e-4 0.06033853,0.06033853 0 0 0 0,-5.1e-4 0.06033853,0.06033853 0 0 0 0,-5.2e-4 0.06033853,0.06033853 0 0 0 0,-5.2e-4 0.06033853,0.06033853 0 0 0 0,-5.1e-4 0.06033853,0.06033853 0 0 0 0,-5.2e-4 c -0.003,-0.0682 -0.041,-0.11739 -0.078,-0.13849 -0.0371,-0.0211 -0.0744,-0.0196 -0.0744,-0.0196 z m 0.50539,0.0594 c 0,0 0.087,-3.8e-4 0.091,0.1018 -0.002,0.21705 -0.008,0.72639 -0.0181,0.98237 -0.002,0.0632 -0.0548,0.11582 -0.11782,0.11782 -0.001,1e-5 -0.001,1e-5 -0.002,0 h -0.3204 c -0.0636,0.001 -0.11847,-0.0491 -0.12247,-0.11265 -2e-5,-10e-4 -2e-5,-10e-4 0,-0.002 -0.006,-0.13978 0.001,-0.37759 -0.0207,-0.46819 -0.008,-0.0345 -0.0388,-0.063 -0.0388,-0.063 0,0 -0.087,-0.0481 -0.0868,-0.11473 l 0.008,-0.31574 c -9.2e-4,-0.0671 0.0559,-0.12467 0.12299,-0.12454 z" />
      <path
         style="color:#000000;fill:#002255;stroke:#0b1728;stroke-width:0.01;stroke-linecap:round;stroke-linejoin:round;stroke-dasharray:none;paint-order:stroke markers fill"
         d="m 114.16953,149.55032 c -0.0671,-1.3e-4 -0.12346,0.0578 -0.12254,0.12491 l -0.008,0.3158 c -1.3e-4,0.0666 0.087,0.11475 0.087,0.11475 0,0 0.0301,0.0283 0.0384,0.0628 0.0219,0.0906 0.0152,0.32828 0.0209,0.46806 -2e-5,8.1e-4 -2e-5,0.001 0,0.002 0.004,0.0635 0.0589,0.11415 0.12255,0.11307 h 0.32051 c 8e-4,1e-5 0.001,1e-5 0.002,0 0.063,-0.002 0.11547,-0.0547 0.11777,-0.11789 0.01,-0.25598 0.0155,-0.76533 0.0178,-0.98238 -0.004,-0.10218 -0.0909,-0.10174 -0.0909,-0.10174 z"
         id="path3331" />
      <ellipse
         style="fill:#2a7fff;stroke:none;stroke-width:0.0101197;stroke-linecap:square;stroke-linejoin:round;stroke-dasharray:none;paint-order:markers fill stroke"
         id="ellipse3333"
         cx="-147.51714"
         cy="-153.48508"
         rx="0.20344611"
         ry="0.20834437"
         transform="matrix(-1,0,0.2155647,-0.97648956,0,0)" />
      <ellipse
         style="fill:#ffffff;stroke:none;stroke-width:0.0309789;stroke-linecap:square;stroke-linejoin:round;stroke-dasharray:none;paint-order:markers fill stroke"
         id="ellipse3335"
         cx="-147.21545"
         cy="-153.29736"
         rx="0.061663117"
         ry="0.063147753"
         transform="matrix(-1,0,0.2155647,-0.97648956,0,0)" />
    </g>
  </g>
</svg>
